<svg id="b49f4f68-d79e-4476-a14b-b3f27440c724" xmlns="http://www.w3.org/2000/svg" viewBox="0 0 995 836.75"><defs><style>.cls-1{fill:#f2f2f2;}.cls-2{fill:none;stroke:#3f3d56;stroke-miterlimit:10;}.cls-3{fill:#57b894;}.cls-4{fill:#6c63ff;}.cls-5{fill:#2f2e41;}.cls-6{isolation:isolate;opacity:0.1;}.cls-7{fill:#fff;}.cls-8{fill:#a0616a;}.cls-9{fill:#3f3d56;}</style></defs><path class="cls-1" d="M711.33,91.38C626.34,91,550,128.07,497.5,187.15,445,128.07,368.66,91,283.67,91.38,124.09,92.11-3.1,223.49.06,384.16,3.12,540,129.52,665.37,285,665.37q9,0,18-.56a3114.08,3114.08,0,0,1,389.08,0q8.91.57,18,.56c155.48,0,281.88-125.37,284.94-281.21C998.1,223.49,870.92,92.11,711.33,91.38Z" transform="translate(0)"/><path class="cls-2" d="M657.38,7.46a23,23,0,0,0-19.81,13.85c-5,12,1.43,26,11,34.77s21.87,13.72,33,20.28c15,8.81,28.5,21,36,36.74s8.3,35.15-.52,50.15c-8.2,13.93-23.1,22.26-37.31,29.94" transform="translate(0)"/><ellipse class="cls-3" cx="670" cy="8.5" rx="17.5" ry="8.5"/><ellipse class="cls-3" cx="684" cy="64.5" rx="17.5" ry="8.5"/><ellipse class="cls-3" cx="652" cy="73.5" rx="17.5" ry="8.5"/><ellipse class="cls-3" cx="702" cy="120.5" rx="17.5" ry="8.5"/><ellipse class="cls-3" cx="737" cy="120.5" rx="17.5" ry="8.5"/><path class="cls-2" d="M749.86,286.25a23,23,0,0,0-23.9,3.6c-9.76,8.53-10.3,24-5.6,36s13.5,22,20.59,32.85c9.53,14.57,16.18,31.52,15.93,48.92s-8.18,35.18-22.75,44.7c-13.53,8.83-30.58,9.67-46.72,10.24" transform="translate(0)"/><ellipse class="cls-3" cx="760.7" cy="292.79" rx="8.5" ry="17.5" transform="translate(160.36 844.14) rotate(-63.62)"/><ellipse class="cls-3" cx="748.36" cy="349.18" rx="8.5" ry="17.5" transform="translate(102.99 864.41) rotate(-63.62)"/><ellipse class="cls-3" cx="715.69" cy="343.02" rx="8.5" ry="17.5" transform="translate(90.36 831.72) rotate(-63.62)"/><ellipse class="cls-3" cx="739.6" cy="407.34" rx="8.5" ry="17.5" transform="translate(46.01 888.88) rotate(-63.62)"/><ellipse class="cls-3" cx="770.95" cy="422.9" rx="8.5" ry="17.5" transform="translate(49.5 925.61) rotate(-63.62)"/><path class="cls-2" d="M298,366.41a23,23,0,0,1,23.55-5.48c12.21,4.32,18.41,18.46,18.51,31.42s-4.41,25.44-7,38.14c-3.48,17.05-3.4,35.26,3.26,51.34S356.92,511.5,374,515c15.84,3.21,32-2.3,47.21-7.73" transform="translate(0)"/><ellipse class="cls-3" cx="290.35" cy="376.49" rx="17.5" ry="8.5" transform="translate(-183.76 340.83) rotate(-48.06)"/><ellipse class="cls-3" cx="322.64" cy="424.33" rx="17.5" ry="8.5" transform="translate(-208.63 380.72) rotate(-48.06)"/><ellipse class="cls-3" cx="350.73" cy="406.55" rx="17.5" ry="8.5" transform="translate(-186.09 395.71) rotate(-48.06)"/><ellipse class="cls-3" cx="352.27" cy="475.15" rx="17.5" ry="8.5" transform="translate(-236.61 419.61) rotate(-48.06)"/><ellipse class="cls-3" cx="328.88" cy="501.19" rx="17.5" ry="8.5" transform="translate(-263.73 410.85) rotate(-48.06)"/><path class="cls-4" d="M700.48,251l-2.75,20.17-17,124.46L652.89,599.41l-7,51a16.26,16.26,0,0,1-16.11,14.06H444.16a16.26,16.26,0,0,1-16.11-14L421,599.41,392.65,395.59,375.35,271l-2.78-20a16.25,16.25,0,0,1,13.86-18.34,15.24,15.24,0,0,1,2.24-.16h295.7a16.27,16.27,0,0,1,16.26,16.27A16,16,0,0,1,700.48,251Z" transform="translate(0)"/><rect class="cls-5" x="392" y="178.5" width="290" height="54" rx="16.26"/><path class="cls-6" d="M682,204v12.22a16.26,16.26,0,0,1-16.26,16.26H408.26A16.26,16.26,0,0,1,392,216.24V204.05A1527,1527,0,0,0,682,204Z" transform="translate(0)"/><circle class="cls-5" cx="459.5" cy="343" r="44"/><circle class="cls-5" cx="615.5" cy="343" r="44"/><circle class="cls-7" cx="457.5" cy="343" r="12"/><circle class="cls-7" cx="475.5" cy="320" r="5"/><circle class="cls-7" cx="615.5" cy="343" r="12"/><circle class="cls-7" cx="633.5" cy="320" r="5"/><path class="cls-6" d="M699.56,243h0l0,0a16.5,16.5,0,0,0-1.64-3.18h0c-.2-.3-.4-.58-.62-.87l-.22-.27a15.11,15.11,0,0,0-2.07-2.16l-.51-.44c-.2-.15-.4-.31-.6-.45s-.52-.36-.78-.53-.42-.27-.64-.39-.67-.38-1-.55l-.5-.23c-.33-.14-.67-.28-1-.4l-.41-.16c-.48-.16-1-.29-1.46-.41l-.37-.07c-.4-.09-.82-.15-1.23-.21l-.46,0c-.53-.05-1.07-.09-1.62-.09H388.67a16.31,16.31,0,0,0-16.25,16.36,15.4,15.4,0,0,0,.15,2.14l.47,3.38L375.35,271h0l17.3,124.55h0l22.71,163.49,12.69,91.4a16.26,16.26,0,0,0,16.11,14H453a16.59,16.59,0,0,1-.92-3.52l-8.55-61.57H652.89l27.84-203.82H415.19L398.17,273a1718.45,1718.45,0,0,0,299.56-1.9L700.48,251A16.11,16.11,0,0,0,699.56,243Z" transform="translate(0)"/><path class="cls-5" d="M723.74,259.5a1720.79,1720.79,0,0,1-373.48,0A16.26,16.26,0,0,1,334,243.24h0V221.76a16.26,16.26,0,0,1,16.26-16.26h0a1530.17,1530.17,0,0,0,373.48,0A16.26,16.26,0,0,1,740,221.76v21.48A16.26,16.26,0,0,1,723.74,259.5Z" transform="translate(0)"/><path class="cls-5" d="M660.54,592h-250a9.43,9.43,0,0,1-9.31-8l-27-170.14a9.43,9.43,0,0,1,7.83-10.79,9.23,9.23,0,0,1,1.48-.12h305.8a9.43,9.43,0,0,1,9.43,9.43,9.16,9.16,0,0,1-.13,1.57L669.83,584.15A9.43,9.43,0,0,1,660.54,592Z" transform="translate(0)"/><path class="cls-4" d="M632.09,470.72a6.65,6.65,0,0,1,3.65,11.12C619.88,498.75,581.42,534,536.5,534s-83.38-35.25-99.24-52.16a6.66,6.66,0,0,1,3.65-11.12,528.15,528.15,0,0,1,191.18,0Z" transform="translate(0)"/><path class="cls-7" d="M586.5,481.26a6.67,6.67,0,0,1,3.62,11.34c-10.74,10.47-30.73,26.26-53.62,26.26s-42.88-15.79-53.62-26.26a6.68,6.68,0,0,1-.08-9.43,6.76,6.76,0,0,1,3.7-1.91,305.64,305.64,0,0,1,100,0Z" transform="translate(0)"/><line class="cls-2" x1="126.5" y1="665" x2="817.5" y2="665"/><path class="cls-8" d="M183.65,572.44v28.14L198.1,617.3s6.08-2.28,6.08-17.48l2.28-22.05Z" transform="translate(0)"/><path class="cls-8" d="M198.1,600.58s-23.57-16-24.33-21.29-34.21-29.65-28.89-14.45,22.05,22,22.05,22,12.92,35,24.33,34.21S202.66,605.9,198.1,600.58Z" transform="translate(0)"/><polygon class="cls-9" points="211.78 771.64 214.06 785.33 201.9 782.28 201.9 771.64 211.78 771.64"/><path class="cls-5" d="M209.5,779.24s-14.06-8.33-14.63-4.54-6.66,18.23-9.7,19.75-6.84,18.25,0,17.49c5.3-.59,24.74-10.76,33.24-15.31a4.64,4.64,0,0,0,2-6.07,9.64,9.64,0,0,1-1-2.95C219.39,786.09,209.5,779.24,209.5,779.24Z" transform="translate(0)"/><path class="cls-5" d="M216.34,624.9s-55.5,25.85-50.17,45.62,25.09,103.4,25.09,103.4,22,5.32,23.56,0-14.44-88.19-12.92-91.23,29.65-22.81,29.65-22.81l57.78-24.33L265,612.74Z" transform="translate(0)"/><polygon class="cls-9" points="174.53 776.2 167.69 793.69 179.85 799.01 187.45 785.33 174.53 776.2"/><path class="cls-8" d="M215.58,500.22s6.85,9.12,1.53,13.68-1.53,21.29-1.53,21.29l6.85,19,27.37-5.32V517.7l-1.52-15.2s-13.69-12.93-15.21-22.81S215.58,500.22,215.58,500.22Z" transform="translate(0)"/><path class="cls-6" d="M215.58,500.22s6.85,9.12,1.53,13.68-1.53,21.29-1.53,21.29l6.85,19,27.37-5.32V517.7l-1.52-15.2s-13.69-12.93-15.21-22.81S215.58,500.22,215.58,500.22Z" transform="translate(0)"/><path class="cls-5" d="M261.2,618.82s-35.73,39.54-35.73,41.06-19,32.69-19,32.69l-37.25,82.87s14.44,19.77,20.52,18.25S239.15,704,239.15,704s7.61-19.76,28.13-24.32,36.5-20.53,28.9-38.78S261.2,618.82,261.2,618.82Z" transform="translate(0)"/><circle class="cls-8" cx="215.58" cy="481.21" r="24.33"/><path class="cls-1" d="M216.34,520.75s3,17.48,6.09,19,5.32,6.84,12.16-.76,12.93-22.81,12.93-22.81l23.57,28.89,2.28,79.83s-26.61-6.84-35,0S211.78,631,211.78,631l3.8-15.21-3-25.85.76-23.57.76-16.72Z" transform="translate(0)"/><path class="cls-9" d="M219,508s-10.28,5.19-11,8.23-14.44,9.13-14.44,9.13-5.33,5.32-5.33,8.36,18.25,38,18.25,38,3.8,23.57,2.28,28.14,3,22,3,22l-9.12,10.65H211s9.13-4.56,9.13-6.85-1.52-18.24-2.28-25.08-.76-31.18.76-39.54.76-30.41.76-35.73S219,508,219,508Z" transform="translate(0)"/><path class="cls-9" d="M242.57,496.4s3.43.78,13.31,3.82,25.09,7.6,30.41,13.68a94.21,94.21,0,0,1,9.89,14.45l-3.05,54.74s6.09,11.4,5.33,17.49-6.85,6.84-2.28,19.76,13.68,24.33,5.32,25.85-30.41-3.8-40.3-.76S239.91,634,239.91,634s15.21,1.52,12.93-4.56S225.47,555,230.79,539.75,242.57,496.4,242.57,496.4Z" transform="translate(0)"/><path class="cls-9" d="M192,529.87l-3.81,3s-10.64,38-7.6,41.82,27.37,12.16,28.89,6.84S192,529.87,192,529.87Z" transform="translate(0)"/><path class="cls-8" d="M304.54,556.48s11.4,32.69,11.4,41.81-1.52,62.35-1.52,62.35-.76,22.81-16.72,13.68,0-15.2,0-15.2-.76-60.07-6.85-68.43-8.36-20.53-8.36-20.53Z" transform="translate(0)"/><path class="cls-5" d="M179.85,792.93s-11.4-6.08-13.68-1.52-14.45,29.65-12.93,32.69,9.88,15.21,19.77,12.16,10.64-19,10.64-19l.76-18.25Z" transform="translate(0)"/><path class="cls-5" d="M210.82,475.33c1.68.79,3.66,1.26,4.72,2.79.78,1.13.86,2.59,1.43,3.84a5.43,5.43,0,0,0,7,2.56,6.06,6.06,0,0,1,2.46-3.74,3.58,3.58,0,0,1,4.25.24c1.57,1.49,1,4.1,1.75,6.14A13.07,13.07,0,0,0,235.2,491c1.67,1.92,3,4.17,5,5.73s5,2.24,7,.66c1.68-1.33,2-3.78,1.62-5.87s-1.42-4-2-6.09c-1.84-6.69,1.1-13.84.19-20.72-1.17-8.82-8.66-15.78-17-18.81a20,20,0,0,0-11-1.16c-3.83.85-7.1,3.29-10.76,4.68-3.92,1.49-8.18,1.75-12.28,2.62s-8.32,2.56-10.7,6c-1.66,2.41-2.23,5.39-3.61,8a14.31,14.31,0,0,1-7.25,6.49l4.34-.25a12.66,12.66,0,0,1-3.46,5,9.21,9.21,0,0,0,6-.79,6.51,6.51,0,0,1-2.23,4.68c3.33-.1,6.85-.26,9.67-2,1.38-.88,2.51-2.1,3.8-3.09,2.77-2.12,6.21-3.12,9.56-4.08,1.76-.51,3.87-1.21,5.46-.08C208.9,472.84,209.11,474.53,210.82,475.33Z" transform="translate(0)"/><path class="cls-9" d="M284.77,519.22l11.41,9.13,15.2,35s-21.29,16.73-26.61,14.45-14.44-42.58-14.44-42.58Z" transform="translate(0)"/><path class="cls-4" d="M171.41,554.55l-.19,1.39L170,564.57l-1.93,14.12-.48,3.53a1.13,1.13,0,0,1-1.12,1H153.65a1.14,1.14,0,0,1-1.12-1l-.49-3.54-2-14.12-1.2-8.63-.19-1.39a1.11,1.11,0,0,1,1-1.27h20.64a1.12,1.12,0,0,1,1.13,1.12A.81.81,0,0,1,171.41,554.55Z" transform="translate(0)"/><rect class="cls-5" x="150.04" y="549.53" width="20.09" height="3.74" rx="1.13"/><path class="cls-5" d="M173,555.14a119.11,119.11,0,0,1-25.88,0A1.13,1.13,0,0,1,146,554h0v-1.49a1.12,1.12,0,0,1,1.12-1.12,106.71,106.71,0,0,0,25.88,0,1.13,1.13,0,0,1,1.13,1.12V554A1.14,1.14,0,0,1,173,555.14Z" transform="translate(0)"/><path class="cls-5" d="M168.64,578.18H151.32a.65.65,0,0,1-.64-.55l-1.87-11.79a.65.65,0,0,1,.54-.75h21.29a.65.65,0,0,1,.65.65.37.37,0,0,1,0,.11l-2,11.79A.66.66,0,0,1,168.64,578.18Z" transform="translate(0)"/></svg>