<svg id="Layer_1" data-name="Layer 1" xmlns="http://www.w3.org/2000/svg" viewBox="0 0 406.21 178.14"><defs><style>.cls-1{fill:#fff;}</style></defs><path class="cls-1" d="M64,119.78a26.32,26.32,0,0,1,4.56,1,4.1,4.1,0,0,1,2.83,3.14,2.42,2.42,0,0,1-1.2,2.75,12.65,12.65,0,0,1-3.7,1.21c-1.25.21-2.54.41-3.9.62a.6.6,0,0,0-.3.19.58.58,0,0,0-.2.41,128.77,128.77,0,0,0-3.76,16.1q-1.42,8.36-3.14,16.26a9.4,9.4,0,0,1-.51,1,.91.91,0,0,1-.81.51,1.23,1.23,0,0,1-1-.4,4.55,4.55,0,0,1-.5-.92,84.87,84.87,0,0,1-1.92-17.83q.19-3.65.6-7.19a61.34,61.34,0,0,1,1.22-7v-.31a10.57,10.57,0,0,0-2.63-.25H44.94l-4.78.13c-1.52,0-2.58.05-3.19.05a6.2,6.2,0,0,0-2.33,1,61.73,61.73,0,0,0-7.75,6.22q-3.6,3.41-7.24,6.54a59.79,59.79,0,0,1-7.7,5.63,27.85,27.85,0,0,1-9,3.49,3,3,0,0,1-2.64-1c-.33-.34-.31-.76.06-1.27a6.79,6.79,0,0,1,1.36-1.37q6.09-4.35,11.75-9.27t11.08-9.92A4.36,4.36,0,0,1,25,129l.72-.56a70.46,70.46,0,0,1-8.52-1.67c-2.74-.71-5.53-1.34-8.36-1.87-1-.34-1.89-.65-2.84-.92a13,13,0,0,1-2.8-1.11c-.47-.54-.45-.86.06-1a6.67,6.67,0,0,1,1.26-.15l2.89-.35,2.89-.35q6.48-.1,11.9-.41c3.62-.2,7.21-.31,10.79-.31a1.72,1.72,0,0,0,.86-.19c.24-.14.49-.27.76-.41A118,118,0,0,0,43,110.93q3.9-4.44,7.5-9.11t6.94-9.47q3.35-4.81,6.78-9.68a3.85,3.85,0,0,1,4.46-1.62,3.49,3.49,0,0,1,1.52,1.27,3.37,3.37,0,0,1,.71,2.07,108,108,0,0,1-3,17.58q-2.18,8.46-3.9,17a1.77,1.77,0,0,1,0,.46A1.36,1.36,0,0,0,64,119.78Zm-6.81-12.87c-.81,1-1.79,2-2.94,3.14l-3.54,3.55c-1.22,1.22-2.38,2.42-3.5,3.6s-2,2.21-2.79,3.08h.11c1.15,0,2.66,0,4.56-.15s3.41-.15,4.56-.15a.3.3,0,0,0,.2-.1l.2-.2a49.19,49.19,0,0,0,1.73-6.43C56.16,111.12,56.63,109,57.16,106.91Zm45.71,58.29c.34.67.64.88.91.6a6.8,6.8,0,0,1,1.22-.91,65.89,65.89,0,0,0,6-6.28q3.28-3.86,6.48-8t6-8.15c1.86-2.68,3.37-4.88,4.52-6.65a3.85,3.85,0,0,1,.6-.85c.27-.31.51-.6.71-.87.54-.53,1-.6,1.27-.2a1.59,1.59,0,0,1,.15,1.52q-1.51,2.53-3.9,7.3c-1.58,3.17-3.38,6.51-5.37,10s-4.12,6.92-6.39,10.23a45.6,45.6,0,0,1-6.73,8,9.09,9.09,0,0,1-5.27,2.53,9.26,9.26,0,0,1-5-1.67,6,6,0,0,1-2.74-4.2,55.23,55.23,0,0,1,.21-12.46,114.56,114.56,0,0,1,3.54-17q2.63-9.44,6.18-19-2.62,5.77-5.82,12.76T93.3,145.2q-3,6.38-5.58,11.15a27.49,27.49,0,0,1-4,6.07A9.27,9.27,0,0,1,78.45,165a9.26,9.26,0,0,1-5-1.67,6,6,0,0,1-2.74-4.2,55.23,55.23,0,0,1,.21-12.46,115.79,115.79,0,0,1,3.29-16.06q2.39-8.76,5.68-17.68T87,95.66a160.18,160.18,0,0,1,7.6-14.59q1.72-2.73,3.45-5.22a47.65,47.65,0,0,1,3.65-4.61,4.06,4.06,0,0,1,1.77-1.32,2.8,2.8,0,0,1,2.18.11,3.29,3.29,0,0,1,1.92,3.74,67.88,67.88,0,0,1-2.84,12.67,114.92,114.92,0,0,1-5.11,13.17,130.19,130.19,0,0,1-6.48,12.32,87.45,87.45,0,0,1-7,10.18,2,2,0,0,0-.45.71,5.87,5.87,0,0,1-.36.81q-1.5,4.05-3,8.92c-1,3.25-1.82,6.39-2.53,9.47a79.86,79.86,0,0,0-1.52,8.56,21.35,21.35,0,0,0,0,6.08,1.63,1.63,0,0,0,1.37,1.06,2.83,2.83,0,0,0,1.67-.45,27.49,27.49,0,0,0,4.31-5.63q2.58-4.09,5.52-9.62t6.13-11.8q3.2-6.28,6.18-12.17T109,107.42a82.9,82.9,0,0,1,4.25-7.29c1.15-2.37,2.28-4.61,3.4-6.74s2.21-4.11,3.29-5.93,2.29-3.56,3.44-5.21A44.76,44.76,0,0,1,127,77.64a4,4,0,0,1,1.77-1.32,2.71,2.71,0,0,1,2.18.1,3.31,3.31,0,0,1,1.88,3.78,65.3,65.3,0,0,1-2.48,11.65,81,81,0,0,1-4.31,10.94,93.91,93.91,0,0,1-5.67,10.13,104,104,0,0,1-6.69,9.22,2,2,0,0,0-.46.71,5.82,5.82,0,0,1-.35.81c-.67,1.83-1.42,4-2.23,6.44s-1.62,5.07-2.43,7.84-1.57,5.56-2.28,8.36-1.33,5.46-1.87,8-.93,4.71-1.17,6.63A14.21,14.21,0,0,0,102.87,165.2Zm2.63-86.62q-2.11,3.65-4.45,8.41t-4.51,9.77c-1.46,3.34-2.87,6.64-4.26,9.88s-2.65,6.15-3.8,8.71a17.79,17.79,0,0,0,2.43-3.54q1.53-2.64,3.3-6.18c1.18-2.37,2.4-4.9,3.64-7.6s2.4-5.31,3.45-7.81,2-4.77,2.73-6.83a29.35,29.35,0,0,0,1.47-4.84ZM130.73,85a143.09,143.09,0,0,0-7.8,15q-3.45,7.7-6.89,15.4a17.74,17.74,0,0,0,2.28-3.09c.91-1.45,1.87-3.11,2.89-5s2-3.86,3-6,2-4.25,2.84-6.28,1.64-3.93,2.32-5.72a26.62,26.62,0,0,0,1.36-4.34Zm20.16,77a1.68,1.68,0,0,0,1.9,1.42,1.72,1.72,0,0,0,.59-.2,14.34,14.34,0,0,0,4.35-3,58.35,58.35,0,0,0,5.22-5.67c1.82-2.23,3.56-4.42,5.21-6.59s3.1-4.11,4.31-5.88,2-2.9,2.43-3.44a10.08,10.08,0,0,1,1.17-1.52,16,16,0,0,1,1.67-1.52,11,11,0,0,1,1-.65,1.49,1.49,0,0,1,1-.31c.26,0,.38.25.35.66a7.13,7.13,0,0,1-.76,2c-.4.8-1,2-1.93,3.69s-2,3.52-3.24,5.58-2.7,4.18-4.25,6.38a60,60,0,0,1-5,6.13,47.08,47.08,0,0,1-5.47,5,14.32,14.32,0,0,1-5.62,2.74,22.27,22.27,0,0,1-4.66.65,4.91,4.91,0,0,1-3.75-1.57,6.62,6.62,0,0,1-1.73-4.35,29.4,29.4,0,0,1,.26-6,52.05,52.05,0,0,1,1.22-6.31c.54-2,1-3.53,1.32-4.61q1.61-5.26,3.08-10.39t2.89-10.28c1-3,1.94-6.16,2.79-9.36s1.7-6.1,2.58-8.67c-1.35-.07-2.74-.11-4.15-.15l-4.26-.1a41.71,41.71,0,0,1-4.2-.26,23.45,23.45,0,0,1-3.9-.7,4.45,4.45,0,0,1-2.38-1.32,2.6,2.6,0,0,1-.71-1.82,2,2,0,0,1,1-1.57,4.78,4.78,0,0,1,2.79-.66c.74,0,2,.06,3.65.2s3.45.24,5.31.3,3.58.09,5.17,0a10.41,10.41,0,0,0,3.09-.35q.3-.1.3-.3c.41-1.22.85-2.5,1.32-3.85s1-2.68,1.42-4,.92-2.5,1.37-3.64.82-2.13,1.16-2.94a1.44,1.44,0,0,1,1.67-.76,7.9,7.9,0,0,1,2.63.86,8.87,8.87,0,0,1,2.39,1.78,2.57,2.57,0,0,1,.91,2A17.83,17.83,0,0,1,171,93.77a36.61,36.61,0,0,0-1.92,5.78q6.38-.1,11-.15t9,0h2.83a10.72,10.72,0,0,1,2.18.25c.51.14.63.32.36.56a9.47,9.47,0,0,1-2.64,1,97.52,97.52,0,0,1-12.36,3.09q-6,1.07-11.75,1.57c-.34.07-.49.14-.46.2s-.05.27-.25.61a.3.3,0,0,1-.1.2.28.28,0,0,0-.1.21q-1.62,4.45-3.55,10c-1.29,3.72-2.56,7.54-3.85,11.45s-2.5,7.77-3.65,11.55-2.12,7.21-2.93,10.29-1.41,5.64-1.78,7.69-.46,3.38-.12,3.85Zm47.42-28.67c-2.57,2-5.06,3.87-7.45,5.73a41.66,41.66,0,0,0-6.54,6.33,53,53,0,0,0-3.19,4.4,26.81,26.81,0,0,0-2.38,4.61,1.37,1.37,0,0,1-1.89.43l0,0a9.22,9.22,0,0,1-3.34-4.66,18.52,18.52,0,0,1-.87-6,33.2,33.2,0,0,1,.71-6.28c.44-2.06.9-3.86,1.37-5.42q1.62-5.88,3.7-12.1T182.86,108q2.37-6.08,5-11.74c1.72-3.79,3.4-7.3,5-10.54a28.79,28.79,0,0,1,2.84-4.46,17.29,17.29,0,0,1,3.14-3.14,3.33,3.33,0,0,1,1.88-.76,3.5,3.5,0,0,1,1.77.36,3.83,3.83,0,0,1,1.37,1.16,3.37,3.37,0,0,1,.66,1.57,25.61,25.61,0,0,1-.91,10,72.31,72.31,0,0,1-4.16,11.4,91.09,91.09,0,0,1-5.82,10.73,52.53,52.53,0,0,1-6,8c-.27.27-.41.47-.41.61q-1.62,4.25-2.84,8.31c-.81,2.69-1.69,5.4-2.63,8.1-.14.74-.29,1.52-.45,2.33a11.66,11.66,0,0,0-.26,2.43,21.07,21.07,0,0,1,2.64-2.94q3.13-3,6.58-5.77a44.53,44.53,0,0,1,7.39-4.76,19.56,19.56,0,0,1,3.2-1.27,5.42,5.42,0,0,1,3.19,0,10.34,10.34,0,0,1,2.63,1,2.9,2.9,0,0,1,1.47,2.13,7.75,7.75,0,0,1-.36,2.53c-.67,2.5-1.52,5.24-2.57,8.21l-3,8.46c-1,2.67-1.76,5-2.44,6.89s-1,3.09-.81,3.5c.34.67,1,.7,2,.1a21.68,21.68,0,0,0,3.54-2.94c1.39-1.33,2.91-3,4.56-4.87s3.31-3.8,5-5.72,3.26-3.75,4.81-5.47,2.87-3.09,3.95-4.1c.88-.88,1.62-1.25,2.23-1.12s.71.85.31,2.13c-.54.95-1.42,2.31-2.64,4.11s-2.65,3.76-4.3,5.92-3.43,4.36-5.33,6.59-3.76,4.25-5.61,6.07a41.69,41.69,0,0,1-5.33,4.51,8.09,8.09,0,0,1-4.35,1.77,8.28,8.28,0,0,1-3.4-.7,7.89,7.89,0,0,1-2.68-2,8.43,8.43,0,0,1-1.67-2.94,8.6,8.6,0,0,1-.36-3.7,15.82,15.82,0,0,1,.31-1.67c.13-.57.3-1.26.5-2.07.74-2,1.44-3.92,2.08-5.88s1.33-3.92,2.08-5.88a61,61,0,0,1,4.25-8.81v-.2c-.1-.14-.27-.21-.6-.21ZM188,117a16.48,16.48,0,0,0,2.59-3,53.25,53.25,0,0,0,3.44-5.58q1.77-3.24,3.55-6.94a71.24,71.24,0,0,0,3-7.14,42.92,42.92,0,0,0,1.82-6.18,6.25,6.25,0,0,0-.15-4.05q-1.12,2.43-3.1,6.94t-4.1,9.47q-2.13,5-4.1,9.53c-1.27,2.95-2.28,5.28-2.95,6.91Zm30.7,28.21a28,28,0,0,1,.81-8,28.8,28.8,0,0,1,3-7.65,18.13,18.13,0,0,1,5.12-5.73,12.68,12.68,0,0,1,7.24-2.33,5.5,5.5,0,0,1,3.29,2.13,4.73,4.73,0,0,1,.66,3.95,14.55,14.55,0,0,1-1.17,3.8,11.51,11.51,0,0,1-2.58,3.3c-.61.54-1.45,1.24-2.53,2.12s-2.13,1.79-3.14,2.74a22.57,22.57,0,0,0-2.64,2.89,4.43,4.43,0,0,0-1.11,2.48q-.31,2.63.81,3.39a4.38,4.38,0,0,0,2.89.61,11.24,11.24,0,0,0,3.59-1c1.22-.54,2.2-1,2.94-1.42q1.32-.91,2.94-2.28c1.08-.91,2.16-1.88,3.24-2.89l3.15-2.94c1-.94,1.85-1.72,2.53-2.33a15.3,15.3,0,0,0,1.46-1.52,6.59,6.59,0,0,1,1.57-1.21,3,3,0,0,1,1.27-.11c.3.07.26.58-.15,1.52a17.66,17.66,0,0,1-2,3.24c-.77,1-1.6,2-2.48,3-1.22,1.36-2.52,2.77-3.9,4.26a45.56,45.56,0,0,1-4.35,4.1,30.87,30.87,0,0,1-4.77,3.25,15.31,15.31,0,0,1-5.11,1.77,11.18,11.18,0,0,1-7.65-1.93C219.66,151,218.67,148.59,218.67,145.2Zm16.21-19a11.42,11.42,0,0,0-4.31,2.64,9.79,9.79,0,0,0-2.28,4.76,39.37,39.37,0,0,0,4-3.3A9.89,9.89,0,0,0,234.88,126.2Zm42.34,11.45a35,35,0,0,0,9.93,1.17c3.24-.11,6.58-.29,10-.56.68,0,1,.15.91.45s-.17.5-.3.56a28.37,28.37,0,0,1-9.27,3.24,25.85,25.85,0,0,1-9.68-.4c.34,1.82.63,3.92.86,6.28a64.44,64.44,0,0,1,.31,7.35,69.07,69.07,0,0,1-.46,7.49,35.68,35.68,0,0,1-1.36,6.79,18.88,18.88,0,0,1-2.54,5.32,7.29,7.29,0,0,1-3.76,2.86,13.53,13.53,0,0,1-3.3-.19,3.58,3.58,0,0,1-2.48-2,19.48,19.48,0,0,1-2.28-9.21c0-3.11.19-6.18.46-9.22a167.91,167.91,0,0,1,3.39-17.22q2.18-8.72,5.12-17a149.71,149.71,0,0,1,6.53-15.65,100.07,100.07,0,0,1,7.75-13.38,12.61,12.61,0,0,1,2-2,3.35,3.35,0,0,1,2.63-.66,2.51,2.51,0,0,1,2.17,1.06,2.38,2.38,0,0,1,.31,2.47v1.62c0,1.76-.05,3.59-.15,5.47a24.49,24.49,0,0,1-1,5.57,63.77,63.77,0,0,1-6.59,15.76,150.18,150.18,0,0,1-9.12,13.52,1.5,1.5,0,0,1-.08.47ZM271,166.93c.61.2,1.16-.15,1.67-1.06a13.86,13.86,0,0,0,1.27-3.7,41.82,41.82,0,0,0,.76-5.22c.17-1.93.27-3.78.3-5.57a34.54,34.54,0,0,0-.2-4.77,6.75,6.75,0,0,0-.76-2.78q-1.11,5.78-2.18,11.4a53.59,53.59,0,0,0-.86,11.66Zm7.19-35.56a48.82,48.82,0,0,0,4.86-7.14,81,81,0,0,0,4.21-8.51,82.74,82.74,0,0,0,3.19-8.77,64,64,0,0,0,1.93-8.1,38.18,38.18,0,0,0-4,6.89q-2.18,4.56-4.21,9.52t-3.65,9.42q-1.6,4.42-2.33,6.65ZM291.5,145.2a27.64,27.64,0,0,1,.82-8,28.14,28.14,0,0,1,3-7.65,18.33,18.33,0,0,1,5.11-5.73,12.72,12.72,0,0,1,7.25-2.33,5.5,5.5,0,0,1,3.29,2.13,4.77,4.77,0,0,1,.66,3.95,14.55,14.55,0,0,1-1.17,3.8,12,12,0,0,1-2.58,3.3c-.61.54-1.46,1.24-2.53,2.12s-2.13,1.79-3.15,2.74a22.49,22.49,0,0,0-2.63,2.89,4.37,4.37,0,0,0-1.11,2.48c-.21,1.62.05,2.7.75,3.23a3.25,3.25,0,0,0,2.74.47,12.81,12.81,0,0,0,3.8-1.63,31.1,31.1,0,0,0,7.65-6.48,10.63,10.63,0,0,0,2.08-3.5A51.61,51.61,0,0,1,319,129.7a28.22,28.22,0,0,1,4.56-5.93,16.58,16.58,0,0,1,5.68-3.69,14,14,0,0,1,7-.72,6.13,6.13,0,0,1,3,3.55,7,7,0,0,1-.47,5.07,20.77,20.77,0,0,1-3,3.74,17.78,17.78,0,0,1-2.94,2.23,36.78,36.78,0,0,1-3.29,1.73q-1.77.81-4.1,2.13a5.39,5.39,0,0,0-2.23,2.83,11,11,0,0,0-.82,4.16,8,8,0,0,0,.92,3.84,3.57,3.57,0,0,0,3,1.93,14.26,14.26,0,0,0,7.75-1.27,49.69,49.69,0,0,0,7.65-4.25,81.24,81.24,0,0,0,6.63-5,33.8,33.8,0,0,1,4.82-3.49c.67-.07.94.2.8.81a6.56,6.56,0,0,1-1.31,2.33,31.3,31.3,0,0,1-5.22,5.57,49.89,49.89,0,0,1-7.5,5.32,42.49,42.49,0,0,1-8.41,3.75,17.46,17.46,0,0,1-8.05.76,13.54,13.54,0,0,1-7.09-3.7c-1.69-1.79-2.4-4.3-2.13-7.55-1.15,1.22-2.2,2.38-3.14,3.5a26,26,0,0,1-2.94,3,15.62,15.62,0,0,1-3.29,2.23,12.21,12.21,0,0,1-4,1.22c-2.91.14-5.12-.46-6.64-1.77S291.85,148.45,291.5,145.2Zm16.22-19a11.42,11.42,0,0,0-4.31,2.64,9.79,9.79,0,0,0-2.28,4.76,39.37,39.37,0,0,0,4-3.3A9.89,9.89,0,0,0,307.72,126.2Zm27.44-1.15a19.88,19.88,0,0,0-5.72,2.89,18.8,18.8,0,0,0-4.82,5,27,27,0,0,0,4.41-2.18,20,20,0,0,0,5.07-4.31A12,12,0,0,0,335.16,125.05Zm19,31.61a1.62,1.62,0,0,0,1.36,1.06,2.86,2.86,0,0,0,1.68-.45,64.45,64.45,0,0,0,5.77-5.68c1.83-2,3.56-4,5.22-6.08s3.27-4,4.86-5.93,3.12-3.66,4.61-5.21c.54-.54,1-.66,1.27-.35a1.27,1.27,0,0,1,.15,1.36q-1.43,2.34-2.83,4.51c-.95,1.45-1.93,2.93-2.95,4.41q-3.14,4.45-6.43,9.52a42.64,42.64,0,0,1-7.24,8.61,7.4,7.4,0,0,1-10.27.86,6,6,0,0,1-2.73-4.2,55.23,55.23,0,0,1,.2-12.46,119.13,119.13,0,0,1,2.94-15.1,155.82,155.82,0,0,1,4.92-15.5q2.88-7.69,6.33-15t7.14-13.57c1.15-1.82,2.29-3.56,3.44-5.21a44.76,44.76,0,0,1,3.65-4.61A4,4,0,0,1,377,76.32a2.71,2.71,0,0,1,2.18.1,3.29,3.29,0,0,1,2,3.78,65.3,65.3,0,0,1-2.48,11.65,81,81,0,0,1-4.31,10.94,93.91,93.91,0,0,1-5.67,10.13,102.58,102.58,0,0,1-6.69,9.22,2,2,0,0,0-.46.71,7.32,7.32,0,0,1-.35.81q-1.51,4-3,8.92c-1,3.28-1.84,6.44-2.53,9.47a77.45,77.45,0,0,0-1.52,8.56A21.51,21.51,0,0,0,354.16,156.66Zm24.92-71.73a141.21,141.21,0,0,0-7.8,15q-3.45,7.69-6.89,15.4a17.74,17.74,0,0,0,2.28-3.09c.91-1.45,1.87-3.11,2.89-5s2-3.86,3-6,2-4.25,2.83-6.28,1.66-3.93,2.33-5.72A27.14,27.14,0,0,0,379,84.93Zm3,57.54c-1.36-1.88-2.69-3.81-4-5.77a11.37,11.37,0,0,1-2-6.48,13.28,13.28,0,0,1,2.29-7.45,20.86,20.86,0,0,1,5.21-5.63,13.67,13.67,0,0,1,2.48-1.31,3.36,3.36,0,0,1,2.69.1,5.59,5.59,0,0,0,1.26.46,6,6,0,0,1,2.29,1,1.28,1.28,0,0,1,.6,1.11c0,1.9.06,3.43.15,4.61a20.32,20.32,0,0,0,.46,3c.2.85.41,1.59.61,2.23s.41,1.34.61,2.08a2.89,2.89,0,0,1-.11,1.72c-.2.47-.7.54-1.51.2a5.62,5.62,0,0,1-3.29-3.24,28.14,28.14,0,0,1-1.58-4.46c-.07-.27-.24-.74-.5-1.41-.19-.46-.36-.94-.51-1.42a2.45,2.45,0,0,0-1.93.55,7.54,7.54,0,0,0-3.08,5.12,5.42,5.42,0,0,0,.65,3.44,12.79,12.79,0,0,0,1.17,1.47c.51.58,1,1.17,1.52,1.78s1,1.2,1.52,1.77l1.27,1.37a2.87,2.87,0,0,0,.81.66,2.64,2.64,0,0,0,1-.26c.68-.34,1.7-.77,3.09-1.31s2.84-1.08,4.35-1.63,3-1,4.36-1.36a12.87,12.87,0,0,1,3.19-.56,1.09,1.09,0,0,1,1,.51c.21.2.18.47-.1.81a6.28,6.28,0,0,1-1.06,1,10.5,10.5,0,0,1-1.37.91l-.91.51q-1.72,1-4.36,2.28a45.6,45.6,0,0,0-4.56,2.48,2,2,0,0,1-.76.41,4.4,4.4,0,0,0-.85.4,32.75,32.75,0,0,1,1.72,4.71,11.32,11.32,0,0,1,.35,3.8,16.11,16.11,0,0,1-.76,3.7c-.4,1.24-.94,2.68-1.62,4.3-.95,1.55-1.91,3.05-2.88,4.46a24.68,24.68,0,0,1-3.3,3.85,15.61,15.61,0,0,1-3.95,2.74,11.16,11.16,0,0,1-7.4.66,4.29,4.29,0,0,1-2.23-1.48,9.48,9.48,0,0,1-2.63-5.52,14.15,14.15,0,0,1,2-9.26,31,31,0,0,1,4.91-6.54C378.24,145.8,380.16,144.09,382.08,142.47Zm3.44,4.56c-.75.75-1.75,1.82-3,3.19a40,40,0,0,0-3.6,4.51,30.85,30.85,0,0,0-2.73,4.81,5.84,5.84,0,0,0-.56,4.1,14.83,14.83,0,0,0,4.15-3,27.33,27.33,0,0,0,3.75-4.56,17.44,17.44,0,0,0,2.28-4.91,5.55,5.55,0,0,0-.29-4.14Z" transform="translate(-0.08 -0.09)"/><path class="cls-1" d="M199.53,24.79v6.72a2,2,0,0,1-4,0V24.79a2,2,0,1,1,4,0Zm6-2a2,2,0,0,0-2,2v6.72a2,2,0,0,0,4,0V24.79a2,2,0,0,0-1.95-2ZM229.9,24.2A42.82,42.82,0,0,1,224,36c-7,10.36-16.32,18.74-25.55,27.11l-.08.06h0a1.75,1.75,0,0,1-1.37.67h-.13a1.74,1.74,0,0,1-1.37-.67h0l-.08-.06c-9.24-8.37-18.5-16.75-25.55-27.11a42.82,42.82,0,0,1-5.94-11.81,21.82,21.82,0,0,1,1.13-14.74,15.23,15.23,0,0,1,2.69-4.13l.42-.44c.18-.19.37-.37.57-.55l1-.87.14-.12.09-.06c.24-.17.48-.33.73-.48a16.81,16.81,0,0,1,8-2.72h1.62a17.83,17.83,0,0,1,10.26,3.62c2.2,1.59,4.2,3.47,6.29,5.22,2.1-1.75,4.09-3.63,6.3-5.22A17.77,17.77,0,0,1,213.43.09h1.63a16.85,16.85,0,0,1,8,2.72c.24.15.49.31.72.48l.09.06.14.12a11,11,0,0,1,1.05.87l.58.55c.14.14.27.29.41.44a15.5,15.5,0,0,1,2.7,4.13A21.76,21.76,0,0,1,229.9,24.2Zm-3.74-9.84A12.41,12.41,0,0,0,214.41,4a13.68,13.68,0,0,0-6,1.29c-.3.15-.6.3-.88.47a40.22,40.22,0,0,0-6,4.72c-.6.6-1.2,1.2-1.78,1.82-1.21,1.28-2,1.87-2.85,1.82s-1.64-.54-2.85-1.82c-.58-.62-1.17-1.22-1.78-1.82a39.8,39.8,0,0,0-6-4.72c-.29-.17-.59-.32-.88-.47a13.68,13.68,0,0,0-6-1.29c-5.18.22-10.34,3.63-11.74,10.4a20.68,20.68,0,0,0,2.56,14.76,74.47,74.47,0,0,0,12,15.59C187,49.57,192,54.24,196.9,59l.07.07.08-.07c2.48-2.42,5-4.82,7.48-7.23-6.08.57-12.16-2.36-16.14-6.75a1.77,1.77,0,0,1-.32-2.48,1.62,1.62,0,0,1,.32-.32,2.06,2.06,0,0,1,2.88.13,40.72,40.72,0,0,0,5.3,3.82c5.22,2.77,10.69,2.12,15.57-2A73.47,73.47,0,0,0,223.61,29.1,20.67,20.67,0,0,0,226.16,14.36Z" transform="translate(-0.08 -0.09)"/></svg>