<?xml version="1.0" encoding="utf-8"?>
<!-- Generator: Adobe Illustrator 25.3.1, SVG Export Plug-In . SVG Version: 6.00 Build 0)  -->
<svg version="1.1" id="Layer_1" xmlns="http://www.w3.org/2000/svg" xmlns:xlink="http://www.w3.org/1999/xlink" x="0px" y="0px"
	 viewBox="0 0 406.3 178.2" style="enable-background:new 0 0 406.3 178.2;" xml:space="preserve">
<style type="text/css">
	.st0{fill:#FFFFFF;}
</style>
<path class="st0" d="M64,119.8c1.5,0.2,3.1,0.5,4.6,1c1.5,0.4,2.5,1.7,2.8,3.1c0.3,1.1-0.2,2.2-1.2,2.8c-1.2,0.6-2.4,1-3.7,1.2
	c-1.2,0.2-2.5,0.4-3.9,0.6c-0.1,0-0.2,0.1-0.3,0.2c-0.1,0.1-0.2,0.3-0.2,0.4c-1.6,5.3-2.9,10.7-3.8,16.1c-0.9,5.6-2,11-3.1,16.3
	c-0.1,0.3-0.3,0.7-0.5,1c-0.2,0.3-0.5,0.5-0.8,0.5c-0.4,0-0.7-0.1-1-0.4c-0.2-0.3-0.4-0.6-0.5-0.9c-1.3-5.9-1.9-11.8-1.9-17.8
	c0.1-2.4,0.3-4.8,0.6-7.2c0.3-2.4,0.7-4.7,1.2-7v-0.3c-0.9-0.2-1.7-0.3-2.6-0.2c-1.4,0-3,0-4.7,0l-4.8,0.1c-1.5,0-2.6,0.1-3.2,0.1
	c-0.8,0.2-1.6,0.5-2.3,1c-2.7,1.9-5.3,3.9-7.8,6.2c-2.4,2.3-4.8,4.4-7.2,6.5c-2.4,2.1-5,4-7.7,5.6c-2.8,1.7-5.8,2.9-9,3.5
	c-1,0.1-2-0.2-2.6-1c-0.3-0.3-0.3-0.8,0.1-1.3c0.4-0.5,0.8-1,1.4-1.4c4.1-2.9,8-6,11.8-9.3s7.5-6.6,11.1-9.9
	c0.1-0.1,0.3-0.2,0.4-0.4l0.7-0.6c-2.9-0.4-5.7-0.9-8.5-1.7c-2.7-0.7-5.5-1.3-8.4-1.9c-1-0.3-1.9-0.6-2.8-0.9
	c-1-0.3-1.9-0.6-2.8-1.1c-0.5-0.5-0.5-0.9,0.1-1c0.4-0.1,0.8-0.1,1.3-0.1c1-0.1,2-0.2,2.9-0.4s1.9-0.2,2.9-0.4
	c4.3-0.1,8.3-0.2,11.9-0.4c3.6-0.2,7.2-0.3,10.8-0.3c0.3,0,0.6-0.1,0.9-0.2c0.2-0.1,0.5-0.3,0.8-0.4c3-2.8,5.8-5.7,8.5-8.7
	c2.6-3,5.1-6,7.5-9.1c2.4-3.1,4.7-6.3,6.9-9.5c2.2-3.2,4.5-6.4,6.8-9.7c0.9-1.5,2.8-2.2,4.5-1.6c0.6,0.3,1.1,0.7,1.5,1.3
	c0.5,0.6,0.7,1.3,0.7,2.1c-0.5,5.9-1.5,11.8-3,17.6c-1.5,5.6-2.8,11.3-3.9,17c0,0.2,0,0.3,0,0.5C64,119.5,64,119.7,64,119.8z
	 M57.2,106.9c-0.8,0.9-1.8,2-2.9,3.1l-3.5,3.6c-1.2,1.2-2.4,2.4-3.5,3.6s-2,2.2-2.8,3.1h0.1c1.2,0,2.7,0,4.6-0.1s3.4-0.1,4.6-0.1
	c0.1,0,0.1,0,0.2-0.1l0.2-0.2c0.7-2.1,1.3-4.2,1.7-6.4C56.2,111.1,56.6,109,57.2,106.9z M102.9,165.2c0.3,0.7,0.6,0.9,0.9,0.6
	c0.4-0.3,0.8-0.7,1.2-0.9c2.1-2,4.1-4.1,6-6.3c2.2-2.6,4.3-5.2,6.5-8c2.1-2.8,4.1-5.5,6-8.1c1.9-2.7,3.4-4.9,4.5-6.6
	c0.2-0.3,0.4-0.6,0.6-0.9c0.3-0.3,0.5-0.6,0.7-0.9c0.5-0.5,1-0.6,1.3-0.2c0.3,0.4,0.4,1,0.1,1.5c-1,1.7-2.3,4.1-3.9,7.3
	c-1.6,3.2-3.4,6.5-5.4,10s-4.1,6.9-6.4,10.2c-1.9,2.9-4.2,5.6-6.7,8c-1.4,1.4-3.3,2.3-5.3,2.5c-1.8-0.1-3.5-0.6-5-1.7
	c-1.5-0.9-2.5-2.5-2.7-4.2c-0.4-4.1-0.3-8.3,0.2-12.5c0.7-5.7,1.9-11.4,3.5-17c1.8-6.3,3.8-12.6,6.2-19c-1.7,3.8-3.7,8.1-5.8,12.8
	s-4.2,9.1-6.1,13.3c-2,4.3-3.9,8-5.6,11.1c-1.1,2.2-2.4,4.2-4,6.1c-1.4,1.4-3.3,2.3-5.3,2.5c-1.8-0.1-3.5-0.6-5-1.7
	c-1.5-0.9-2.5-2.5-2.7-4.2c-0.4-4.1-0.3-8.3,0.2-12.5c0.7-5.4,1.8-10.8,3.3-16.1c1.6-5.8,3.5-11.7,5.7-17.7
	c2.2-5.9,4.6-11.7,7.1-17.2c2.3-5,4.8-9.9,7.6-14.6c1.2-1.8,2.3-3.6,3.4-5.2c1.1-1.6,2.3-3.2,3.7-4.6c0.5-0.6,1.1-1.1,1.8-1.3
	c0.7-0.3,1.5-0.2,2.2,0.1c1.5,0.6,2.3,2.2,1.9,3.7c-0.5,4.3-1.5,8.5-2.8,12.7c-1.4,4.5-3.1,8.9-5.1,13.2c-1.9,4.2-4.1,8.3-6.5,12.3
	c-2.1,3.6-4.4,7-7,10.2c-0.2,0.2-0.4,0.4-0.4,0.7c-0.1,0.3-0.2,0.5-0.4,0.8c-1,2.7-2,5.7-3,8.9s-1.8,6.4-2.5,9.5
	c-0.7,2.8-1.2,5.7-1.5,8.6c-0.3,2-0.3,4.1,0,6.1c0.2,0.6,0.7,1,1.4,1.1c0.6,0,1.2-0.1,1.7-0.4c1.7-1.7,3.1-3.6,4.3-5.6
	c1.7-2.7,3.6-5.9,5.5-9.6c2-3.7,4-7.6,6.1-11.8c2.1-4.2,4.2-8.2,6.2-12.2s3.8-7.5,5.5-10.6c1.3-2.5,2.7-4.9,4.2-7.3
	c1.1-2.4,2.3-4.6,3.4-6.7c1.1-2.1,2.2-4.1,3.3-5.9c1.1-1.8,2.3-3.6,3.4-5.2c1.1-1.6,2.3-3.2,3.6-4.6c0.5-0.6,1.1-1.1,1.8-1.3
	c0.7-0.3,1.5-0.2,2.2,0.1c1.5,0.6,2.2,2.2,1.9,3.8c-0.5,4-1.3,7.9-2.5,11.7c-1.2,3.7-2.6,7.4-4.3,10.9c-1.7,3.5-3.6,6.9-5.7,10.1
	c-2.1,3.2-4.3,6.3-6.7,9.2c-0.2,0.2-0.4,0.4-0.5,0.7c-0.1,0.3-0.2,0.5-0.4,0.8c-0.7,1.8-1.4,4-2.2,6.4s-1.6,5.1-2.4,7.8
	s-1.6,5.6-2.3,8.4c-0.7,2.8-1.3,5.5-1.9,8c-0.5,2.5-0.9,4.7-1.2,6.6C102.7,162.3,102.7,163.8,102.9,165.2z M105.5,78.6
	c-1.4,2.4-2.9,5.2-4.4,8.4c-1.6,3.2-3.1,6.4-4.5,9.8c-1.5,3.3-2.9,6.6-4.3,9.9c-1.4,3.2-2.7,6.1-3.8,8.7c1-1.1,1.8-2.3,2.4-3.5
	c1-1.8,2.1-3.8,3.3-6.2c1.2-2.4,2.4-4.9,3.6-7.6c1.2-2.7,2.4-5.3,3.4-7.8c1.1-2.5,2-4.8,2.7-6.8C104.7,81.8,105.2,80.2,105.5,78.6
	L105.5,78.6z M130.7,85c-2.9,4.8-5.5,9.9-7.8,15c-2.3,5.1-4.6,10.3-6.9,15.4c0.9-0.9,1.6-2,2.3-3.1c0.9-1.4,1.9-3.1,2.9-5s2-3.9,3-6
	s1.9-4.2,2.8-6.3s1.6-3.9,2.3-5.7C129.9,87.9,130.4,86.4,130.7,85L130.7,85z M150.9,162c0.1,0.9,1,1.6,1.9,1.4
	c0.2,0,0.4-0.1,0.6-0.2c1.6-0.7,3.1-1.7,4.4-3c1.9-1.8,3.6-3.7,5.2-5.7c1.8-2.2,3.6-4.4,5.2-6.6c1.7-2.2,3.1-4.1,4.3-5.9
	s2-2.9,2.4-3.4c0.3-0.5,0.7-1,1.2-1.5c0.5-0.5,1.1-1.1,1.7-1.5c0.3-0.2,0.6-0.4,1-0.6c0.3-0.2,0.6-0.3,1-0.3c0.3,0,0.4,0.2,0.4,0.7
	c-0.1,0.7-0.4,1.4-0.8,2c-0.4,0.8-1,2-1.9,3.7s-2,3.5-3.2,5.6s-2.7,4.2-4.2,6.4c-1.5,2.2-3.2,4.2-5,6.1c-1.7,1.8-3.5,3.5-5.5,5
	c-1.6,1.3-3.6,2.3-5.6,2.7c-1.5,0.4-3.1,0.6-4.7,0.6c-1.4,0-2.8-0.5-3.8-1.6c-1.1-1.2-1.7-2.7-1.7-4.4c-0.1-2,0-4,0.3-6
	c0.3-2.1,0.7-4.2,1.2-6.3c0.5-2,1-3.5,1.3-4.6c1.1-3.5,2.1-7,3.1-10.4s1.9-6.8,2.9-10.3c1-3,1.9-6.2,2.8-9.4s1.7-6.1,2.6-8.7
	c-1.4-0.1-2.7-0.1-4.1-0.1l-4.3-0.1c-1.4,0-2.8-0.1-4.2-0.3c-1.3-0.1-2.6-0.4-3.9-0.7c-0.9-0.2-1.7-0.6-2.4-1.3
	c-0.5-0.5-0.7-1.1-0.7-1.8c0.1-0.7,0.4-1.2,1-1.6c0.8-0.5,1.8-0.7,2.8-0.7c0.7,0,2,0.1,3.6,0.2s3.4,0.2,5.3,0.3
	c1.9,0.1,3.6,0.1,5.2,0c1,0,2.1-0.1,3.1-0.3c0.2-0.1,0.3-0.2,0.3-0.3c0.4-1.2,0.9-2.5,1.3-3.9c0.5-1.3,1-2.7,1.4-4
	c0.4-1.3,0.9-2.5,1.4-3.6s0.8-2.1,1.2-2.9c0.3-0.6,1-0.9,1.7-0.8c0.9,0.1,1.8,0.4,2.6,0.9c0.9,0.5,1.7,1.1,2.4,1.8
	c0.6,0.5,0.9,1.2,0.9,2c-0.2,1.8-0.7,3.5-1.4,5.2c-0.8,1.9-1.4,3.8-1.9,5.8c4.3-0.1,7.9-0.1,11-0.1c3.1,0,6.1,0,9,0
	c0.9,0,1.9,0,2.8,0c0.7,0,1.5,0.1,2.2,0.2c0.5,0.1,0.6,0.3,0.4,0.6c-0.8,0.5-1.7,0.8-2.6,1c-4,1.3-8.2,2.3-12.4,3.1
	c-4,0.7-7.9,1.2-11.8,1.6c-0.3,0.1-0.5,0.1-0.5,0.2s-0.1,0.3-0.2,0.6c0,0.1,0,0.1-0.1,0.2c-0.1,0.1-0.1,0.1-0.1,0.2
	c-1.1,3-2.3,6.3-3.6,10c-1.3,3.7-2.6,7.5-3.9,11.4s-2.5,7.8-3.6,11.6s-2.1,7.2-2.9,10.3s-1.4,5.6-1.8,7.7S150.6,161.4,150.9,162
	L150.9,162z M198.3,133.3c-2.6,2-5.1,3.9-7.4,5.7c-2.4,1.9-4.6,4-6.5,6.3c-1.1,1.4-2.2,2.9-3.2,4.4c-0.9,1.5-1.7,3-2.4,4.6
	c-0.4,0.6-1.2,0.8-1.9,0.4c0,0,0,0,0,0c-1.6-1.2-2.8-2.8-3.3-4.7c-0.6-1.9-0.9-4-0.9-6c0-2.1,0.3-4.2,0.7-6.3
	c0.4-2.1,0.9-3.9,1.4-5.4c1.1-3.9,2.3-8,3.7-12.1c1.4-4.1,2.9-8.3,4.5-12.3c1.6-4,3.2-8,5-11.7c1.7-3.8,3.4-7.3,5-10.5
	c0.8-1.6,1.8-3.1,2.8-4.5c0.9-1.2,2-2.2,3.1-3.1c0.5-0.4,1.2-0.7,1.9-0.8c0.6,0,1.2,0.1,1.8,0.4c0.5,0.3,1,0.7,1.4,1.2
	c0.4,0.5,0.6,1,0.7,1.6c0.4,3.4,0,6.8-0.9,10c-1.1,3.9-2.5,7.7-4.2,11.4c-1.7,3.7-3.6,7.3-5.8,10.7c-1.7,2.9-3.7,5.5-6,8
	c-0.3,0.3-0.4,0.5-0.4,0.6c-1.1,2.8-2,5.6-2.8,8.3c-0.8,2.7-1.7,5.4-2.6,8.1c-0.1,0.7-0.3,1.5-0.4,2.3c-0.2,0.8-0.3,1.6-0.3,2.4
	c0.8-1.1,1.7-2,2.6-2.9c2.1-2,4.3-3.9,6.6-5.8c2.3-1.8,4.8-3.4,7.4-4.8c1-0.5,2.1-0.9,3.2-1.3c1-0.3,2.2-0.3,3.2,0
	c0.9,0.2,1.8,0.6,2.6,1c0.8,0.4,1.3,1.2,1.5,2.1c0,0.9-0.1,1.7-0.4,2.5c-0.7,2.5-1.5,5.2-2.6,8.2c-1,3-2,5.8-3,8.5
	c-0.9,2.7-1.8,5-2.4,6.9c-0.7,1.9-0.9,3.1-0.8,3.5c0.3,0.7,1,0.7,2,0.1c1.3-0.9,2.5-1.8,3.5-2.9c1.4-1.3,2.9-3,4.6-4.9
	c1.7-1.9,3.3-3.8,5-5.7s3.3-3.8,4.8-5.5s2.9-3.1,3.9-4.1c0.9-0.9,1.6-1.2,2.2-1.1s0.7,0.9,0.3,2.1c-0.5,0.9-1.4,2.3-2.6,4.1
	s-2.6,3.8-4.3,5.9s-3.4,4.4-5.3,6.6s-3.8,4.2-5.6,6.1c-1.6,1.6-3.4,3.2-5.3,4.5c-1.2,1-2.8,1.6-4.4,1.8c-1.2,0-2.3-0.2-3.4-0.7
	c-1-0.5-1.9-1.1-2.7-2c-0.8-0.9-1.3-1.9-1.7-2.9c-0.4-1.2-0.5-2.5-0.4-3.7c0.1-0.6,0.2-1.1,0.3-1.7c0.1-0.6,0.3-1.3,0.5-2.1
	c0.7-2,1.4-3.9,2.1-5.9s1.3-3.9,2.1-5.9c1.2-3,2.6-6,4.2-8.8v-0.2C198.8,133.3,198.6,133.2,198.3,133.3L198.3,133.3z M188,117
	c1-0.9,1.8-1.9,2.6-3c1.3-1.8,2.4-3.7,3.4-5.6c1.2-2.2,2.4-4.5,3.6-6.9c1.2-2.5,2.2-4.8,3-7.1c0.8-2,1.4-4.1,1.8-6.2
	c0.4-1.3,0.3-2.8-0.1-4.1c-0.7,1.6-1.8,3.9-3.1,6.9s-2.7,6.2-4.1,9.5c-1.4,3.3-2.8,6.5-4.1,9.5C189.7,113,188.6,115.3,188,117
	L188,117z M218.7,145.2c-0.1-2.7,0.2-5.4,0.8-8c0.6-2.7,1.6-5.3,3-7.6c1.3-2.3,3-4.2,5.1-5.7c2.1-1.5,4.6-2.3,7.2-2.3
	c1.3,0.3,2.5,1,3.3,2.1c0.8,1.2,1,2.6,0.7,3.9c-0.2,1.3-0.6,2.6-1.2,3.8c-0.7,1.2-1.5,2.4-2.6,3.3c-0.6,0.5-1.4,1.2-2.5,2.1
	s-2.1,1.8-3.1,2.7c-1,0.9-1.8,1.9-2.6,2.9c-0.6,0.7-1,1.6-1.1,2.5c-0.2,1.8,0.1,2.9,0.8,3.4c0.9,0.5,1.9,0.7,2.9,0.6
	c1.2-0.1,2.5-0.5,3.6-1c1.2-0.5,2.2-1,2.9-1.4c0.9-0.6,1.9-1.4,2.9-2.3c1.1-0.9,2.2-1.9,3.2-2.9l3.1-2.9c1-0.9,1.9-1.7,2.5-2.3
	s1-1,1.5-1.5c0.5-0.5,1-0.9,1.6-1.2c0.4-0.1,0.8-0.2,1.3-0.1c0.3,0.1,0.3,0.6-0.1,1.5c-0.5,1.2-1.2,2.2-2,3.2c-0.8,1-1.6,2-2.5,3
	c-1.2,1.4-2.5,2.8-3.9,4.3c-1.4,1.5-2.8,2.8-4.4,4.1c-1.5,1.2-3.1,2.3-4.8,3.2c-1.6,0.9-3.3,1.5-5.1,1.8c-2.7,0.3-5.4-0.4-7.6-1.9
	C219.7,151,218.7,148.6,218.7,145.2z M234.9,126.2c-1.6,0.5-3.1,1.5-4.3,2.6c-1.2,1.3-2,3-2.3,4.8c1.4-1,2.7-2.1,4-3.3
	C233.5,129.2,234.4,127.8,234.9,126.2z M277.2,137.6c3.2,0.9,6.6,1.3,9.9,1.2c3.2-0.1,6.6-0.3,10-0.6c0.7,0,1,0.1,0.9,0.4
	s-0.2,0.5-0.3,0.6c-2.9,1.6-6,2.7-9.3,3.2c-3.2,0.5-6.5,0.3-9.7-0.4c0.3,1.8,0.6,3.9,0.9,6.3c0.2,2.4,0.3,4.9,0.3,7.4
	c0,2.5-0.2,5-0.5,7.5c-0.2,2.3-0.7,4.6-1.4,6.8c-0.6,1.9-1.4,3.7-2.5,5.3c-0.9,1.3-2.2,2.3-3.8,2.9c-1.1,0.1-2.2,0-3.3-0.2
	c-1.1-0.2-2-1-2.5-2c-1.5-2.8-2.3-6-2.3-9.2c0-3.1,0.2-6.2,0.5-9.2c0.8-5.8,2-11.5,3.4-17.2c1.4-5.8,3.2-11.5,5.1-17
	c1.9-5.3,4.1-10.6,6.5-15.6c2.2-4.7,4.8-9.1,7.8-13.4c0.6-0.7,1.3-1.4,2-2c0.7-0.6,1.7-0.8,2.6-0.7c0.9,0,1.7,0.4,2.2,1.1
	c0.6,0.7,0.7,1.7,0.3,2.5v1.6c0,1.8,0,3.6-0.1,5.5c-0.1,1.9-0.5,3.8-1,5.6c-1.5,5.5-3.7,10.8-6.6,15.8c-2.8,4.7-5.8,9.2-9.1,13.5
	C277.3,137.3,277.3,137.5,277.2,137.6L277.2,137.6z M271,166.9c0.6,0.2,1.2-0.1,1.7-1.1c0.6-1.2,1-2.4,1.3-3.7
	c0.4-1.7,0.6-3.5,0.8-5.2c0.2-1.9,0.3-3.8,0.3-5.6c0-1.6,0-3.2-0.2-4.8c0-1-0.3-1.9-0.8-2.8c-0.7,3.9-1.5,7.7-2.2,11.4
	C271.2,159.1,270.9,163,271,166.9L271,166.9z M278.2,131.4c1.8-2.2,3.5-4.6,4.9-7.1c1.6-2.8,3-5.6,4.2-8.5c1.2-2.9,2.3-5.8,3.2-8.8
	c0.8-2.7,1.5-5.4,1.9-8.1c-1.6,2.2-2.9,4.5-4,6.9c-1.4,3-2.9,6.2-4.2,9.5s-2.6,6.4-3.6,9.4C279.5,127.6,278.7,129.9,278.2,131.4
	L278.2,131.4z M291.5,145.2c-0.1-2.7,0.2-5.4,0.8-8c0.6-2.7,1.6-5.3,3-7.6c1.3-2.3,3-4.2,5.1-5.7c2.1-1.5,4.7-2.3,7.2-2.3
	c1.3,0.3,2.5,1,3.3,2.1c0.8,1.2,1,2.6,0.7,3.9c-0.2,1.3-0.6,2.6-1.2,3.8c-0.7,1.2-1.5,2.4-2.6,3.3c-0.6,0.5-1.5,1.2-2.5,2.1
	s-2.1,1.8-3.1,2.7c-1,0.9-1.8,1.9-2.6,2.9c-0.6,0.7-1,1.6-1.1,2.5c-0.2,1.6,0,2.7,0.8,3.2c0.8,0.6,1.8,0.7,2.7,0.5
	c1.3-0.3,2.6-0.9,3.8-1.6c1.4-0.9,2.8-1.8,4.1-2.9c1.3-1.1,2.5-2.3,3.5-3.5c0.9-1,1.6-2.2,2.1-3.5c1-2.5,2.2-5,3.5-7.3
	c1.3-2.2,2.8-4.2,4.6-5.9c1.6-1.6,3.6-2.9,5.7-3.7c2.2-0.8,4.6-1.1,7-0.7c1.4,0.7,2.5,2,3,3.6c0.5,1.7,0.3,3.5-0.5,5.1
	c-0.9,1.4-1.9,2.6-3,3.7c-0.9,0.8-1.9,1.6-2.9,2.2c-1.1,0.6-2.2,1.2-3.3,1.7c-1.2,0.5-2.5,1.2-4.1,2.1c-1,0.7-1.8,1.7-2.2,2.8
	c-0.5,1.3-0.8,2.7-0.8,4.2c0,1.3,0.3,2.7,0.9,3.8c0.6,1.1,1.7,1.9,3,1.9c2.7,0.3,5.3-0.1,7.8-1.3c2.7-1.2,5.2-2.6,7.6-4.2
	c2.4-1.7,4.6-3.3,6.6-5c1.5-1.3,3.1-2.5,4.8-3.5c0.7-0.1,0.9,0.2,0.8,0.8c-0.3,0.9-0.7,1.7-1.3,2.3c-1.5,2.1-3.3,3.9-5.2,5.6
	c-2.3,2-4.8,3.8-7.5,5.3c-2.7,1.6-5.5,2.8-8.4,3.8c-2.6,0.9-5.3,1.1-8,0.8c-2.7-0.5-5.2-1.8-7.1-3.7c-1.7-1.8-2.4-4.3-2.1-7.6
	c-1.1,1.2-2.2,2.4-3.1,3.5c-0.9,1.1-1.9,2.1-2.9,3c-1,0.9-2.1,1.6-3.3,2.2c-1.3,0.6-2.6,1-4,1.2c-2.9,0.1-5.1-0.5-6.6-1.8
	S291.9,148.4,291.5,145.2z M307.7,126.2c-1.6,0.5-3.1,1.5-4.3,2.6c-1.2,1.3-2,3-2.3,4.8c1.4-1,2.7-2.1,4-3.3
	C306.3,129.2,307.2,127.8,307.7,126.2z M335.2,125.1c-2.1,0.6-4,1.6-5.7,2.9c-1.9,1.4-3.5,3-4.8,5c1.5-0.6,3-1.3,4.4-2.2
	c1.9-1.1,3.6-2.6,5.1-4.3C334.5,126,334.8,125.5,335.2,125.1z M354.2,156.7c0.2,0.6,0.7,1,1.4,1.1c0.6,0,1.2-0.1,1.7-0.4
	c2-1.8,4-3.7,5.8-5.7c1.8-2,3.6-4,5.2-6.1s3.3-4,4.9-5.9s3.1-3.7,4.6-5.2c0.5-0.5,1-0.7,1.3-0.4c0.3,0.4,0.4,0.9,0.1,1.4
	c-0.9,1.6-1.9,3.1-2.8,4.5c-1,1.4-1.9,2.9-3,4.4c-2.1,3-4.2,6.1-6.4,9.5c-2,3.2-4.5,6.1-7.2,8.6c-1.4,1.4-3.3,2.3-5.3,2.5
	c-1.8-0.1-3.5-0.6-5-1.7c-1.5-0.9-2.5-2.5-2.7-4.2c-0.4-4.1-0.3-8.3,0.2-12.5c0.7-5.1,1.6-10.1,2.9-15.1c1.4-5.2,3-10.4,4.9-15.5
	c1.9-5.1,4-10.1,6.3-15c2.3-4.9,4.7-9.4,7.1-13.6c1.1-1.8,2.3-3.6,3.4-5.2c1.1-1.6,2.3-3.2,3.6-4.6c0.5-0.6,1.1-1.1,1.8-1.3
	c0.7-0.3,1.5-0.2,2.2,0.1c1.5,0.6,2.3,2.2,2,3.8c-0.5,4-1.3,7.9-2.5,11.7c-1.2,3.7-2.6,7.4-4.3,10.9c-1.7,3.5-3.6,6.9-5.7,10.1
	c-2.1,3.2-4.3,6.3-6.7,9.2c-0.2,0.2-0.4,0.4-0.5,0.7c-0.1,0.3-0.2,0.5-0.4,0.8c-1,2.7-2,5.6-3,8.9c-1,3.3-1.8,6.4-2.5,9.5
	c-0.7,2.8-1.2,5.7-1.5,8.6C353.9,152.6,353.9,154.7,354.2,156.7z M379.1,84.9c-2.9,4.8-5.5,9.8-7.8,15c-2.3,5.1-4.6,10.3-6.9,15.4
	c0.9-0.9,1.6-2,2.3-3.1c0.9-1.4,1.9-3.1,2.9-5s2-3.9,3-6s2-4.2,2.8-6.3s1.7-3.9,2.3-5.7C378.3,87.8,378.7,86.4,379.1,84.9
	L379.1,84.9z M382.1,142.5c-1.4-1.9-2.7-3.8-4-5.8c-1.3-1.9-2-4.2-2-6.5c0-2.7,0.8-5.3,2.3-7.4c1.4-2.2,3.1-4.1,5.2-5.6
	c0.8-0.5,1.6-1,2.5-1.3c0.9-0.3,1.8-0.3,2.7,0.1c0.4,0.2,0.8,0.4,1.3,0.5c0.8,0.2,1.6,0.5,2.3,1c0.4,0.2,0.6,0.7,0.6,1.1
	c0,1.9,0.1,3.4,0.1,4.6c0.1,1,0.2,2,0.5,3c0.2,0.9,0.4,1.6,0.6,2.2s0.4,1.3,0.6,2.1c0.1,0.6,0.1,1.2-0.1,1.7
	c-0.2,0.5-0.7,0.5-1.5,0.2c-1.5-0.6-2.7-1.7-3.3-3.2c-0.7-1.4-1.2-2.9-1.6-4.5c-0.1-0.3-0.2-0.7-0.5-1.4c-0.2-0.5-0.4-0.9-0.5-1.4
	c-0.7-0.1-1.4,0.1-1.9,0.6c-1.7,1.2-2.8,3.1-3.1,5.1c-0.2,1.2,0.1,2.4,0.6,3.4c0.4,0.5,0.7,1,1.2,1.5c0.5,0.6,1,1.2,1.5,1.8
	s1,1.2,1.5,1.8s0.9,1,1.3,1.4c0.2,0.3,0.5,0.5,0.8,0.7c0.3,0,0.7-0.1,1-0.3c0.7-0.3,1.7-0.8,3.1-1.3s2.8-1.1,4.4-1.6s3-1,4.4-1.4
	c1-0.3,2.1-0.5,3.2-0.6c0.4,0,0.8,0.2,1,0.5c0.2,0.2,0.2,0.5-0.1,0.8c-0.3,0.4-0.7,0.7-1.1,1c-0.4,0.3-0.9,0.6-1.4,0.9l-0.9,0.5
	c-1.1,0.7-2.6,1.4-4.4,2.3c-1.6,0.7-3.1,1.6-4.6,2.5c-0.2,0.2-0.5,0.3-0.8,0.4c-0.3,0.1-0.6,0.2-0.9,0.4c0.7,1.5,1.3,3.1,1.7,4.7
	c0.3,1.2,0.4,2.5,0.4,3.8c-0.1,1.3-0.4,2.5-0.8,3.7c-0.4,1.2-0.9,2.7-1.6,4.3c-1,1.6-1.9,3.1-2.9,4.5c-1,1.4-2.1,2.7-3.3,3.9
	c-1.2,1.1-2.5,2-4,2.7c-2.3,1.1-4.9,1.3-7.4,0.7c-0.9-0.2-1.7-0.8-2.2-1.5c-1.5-1.5-2.4-3.4-2.6-5.5c-0.4-3.2,0.3-6.5,2-9.3
	c1.3-2.4,3-4.6,4.9-6.5C378.2,145.8,380.2,144.1,382.1,142.5z M385.5,147c-0.7,0.8-1.7,1.8-3,3.2c-1.3,1.4-2.5,2.9-3.6,4.5
	c-1.1,1.5-2,3.1-2.7,4.8c-0.7,1.3-0.9,2.7-0.6,4.1c1.5-0.7,3-1.8,4.1-3c1.4-1.4,2.7-2.9,3.8-4.6c1-1.5,1.8-3.2,2.3-4.9
	C386.3,149.8,386.1,148.3,385.5,147L385.5,147z"/>
<path class="st0" d="M199.5,24.8v6.7c0,1.1-0.9,2-2,2s-2-0.9-2-2v-6.7c0-1.1,0.9-2,2-2S199.5,23.7,199.5,24.8z M205.5,22.8
	c-1.1,0-2,0.9-2,2v6.7c0,1.1,0.9,2,2,2s2-0.9,2-2v-6.7C207.5,23.7,206.7,22.8,205.5,22.8L205.5,22.8z M229.9,24.2
	c-1.3,4.2-3.3,8.2-5.9,11.8c-7,10.4-16.3,18.7-25.6,27.1l-0.1,0.1l0,0c-0.3,0.4-0.8,0.7-1.4,0.7h-0.1c-0.5,0-1-0.2-1.4-0.7l0,0
	l-0.1-0.1c-9.2-8.4-18.5-16.8-25.6-27.1c-2.6-3.6-4.6-7.6-5.9-11.8c-1.4-4.9-1-10.1,1.1-14.7c0.7-1.5,1.6-2.9,2.7-4.1l0.4-0.4
	c0.2-0.2,0.4-0.4,0.6-0.5s0.7-0.6,1-0.9l0.1-0.1l0.1-0.1c0.2-0.2,0.5-0.3,0.7-0.5c2.4-1.6,5.1-2.5,8-2.7c0.4,0,0.9,0,1.3,0h0.3
	c3.7,0.1,7.3,1.4,10.3,3.6c2.2,1.6,4.2,3.5,6.3,5.2c2.1-1.8,4.1-3.6,6.3-5.2c3-2.2,6.5-3.5,10.2-3.6h0.3c0.4,0,0.9,0,1.3,0
	c2.9,0.2,5.6,1.1,8,2.7c0.2,0.1,0.5,0.3,0.7,0.5l0.1,0.1l0.1,0.1c0.4,0.3,0.7,0.6,1.1,0.9l0.6,0.5c0.1,0.1,0.3,0.3,0.4,0.4
	c1.1,1.2,2,2.6,2.7,4.1C230.8,14.1,231.2,19.3,229.9,24.2z M226.2,14.4c-1-5.8-5.9-10.2-11.8-10.4c-2.1,0-4.1,0.4-6,1.3
	c-0.3,0.1-0.6,0.3-0.9,0.5c-2.1,1.4-4.2,3-6,4.7c-0.6,0.6-1.2,1.2-1.8,1.8c-1.2,1.3-2,1.9-2.9,1.8s-1.6-0.5-2.9-1.8
	c-0.6-0.6-1.2-1.2-1.8-1.8c-1.8-1.8-3.8-3.3-5.9-4.7c-0.3-0.2-0.6-0.3-0.9-0.5c-1.9-0.9-3.9-1.3-6-1.3c-5.2,0.2-10.3,3.6-11.7,10.4
	c-1,5.1-0.1,10.3,2.6,14.8c3.3,5.7,7.3,10.9,12,15.6c4.8,4.9,9.8,9.5,14.6,14.3l0.1,0.1L197,59c2.5-2.4,5-4.8,7.5-7.2
	c-6.1,0.6-12.2-2.4-16.1-6.8c-0.8-0.6-0.9-1.7-0.3-2.5c0.1-0.1,0.2-0.2,0.3-0.3c1-0.8,1.9-0.6,2.9,0.1c1.7,1.4,3.4,2.7,5.3,3.8
	c5.2,2.8,10.7,2.1,15.6-2c4.5-4.5,8.3-9.6,11.5-15.1C226.3,24.7,227.2,19.4,226.2,14.4z"/>
</svg>
