<svg id="Layer_1" data-name="Layer 1" xmlns="http://www.w3.org/2000/svg" viewBox="0 0 350.7 272.82"><defs><style>.cls-1{fill:#fff;}</style></defs><path class="cls-1" d="M676.88,440.29c-9.76-8-19.41-16.15-29.29-24-3-2.38-4-4.93-4-8.71.2-16.95,0-33.91.13-50.86,0-4.79-1.85-7-6.75-6.82-4.68.18-9.38,0-14.07,0-7.39,0-8.43,1-8.45,8.4,0,9.83,0,19.67,0,30.21-1.28-.86-1.87-1.19-2.39-1.61q-39.9-32.81-79.79-65.64c-16.56-13.69-33.47-13.71-49.91-.08Q446,351.46,409.33,381.44q-36.12,29.71-72.27,59.4c-6.17,5.08-6.7,10.08-1.83,16.38,1.1,1.42,2.34,2.75,3.55,4.08,6.48,7.13,10.27,7.42,18,1.27,4.43-3.55,8.8-7.18,14.15-11.55v7q0,51.94,0,103.9c0,14.21,7.82,21.94,22.14,22q36.53,0,73.05,0c13.87,0,21.71-7.9,21.73-21.82,0-18.58.13-37.16-.09-55.74,0-4.09,1.16-5.25,5.19-5.13,9.55.28,19.13.33,28.67,0,4.51-.17,5.34,1.52,5.3,5.58-.19,18.58-.11,37.16-.08,55.74,0,13.48,8,21.38,21.61,21.39q36.79,0,73.6,0c13.88,0,21.7-7.88,21.71-21.82q0-52.23,0-104.45c0-1.81-.84-3.88,1-5.71,2.45,2,4.83,3.86,7.19,5.79s4.68,4,7.09,5.85c6.21,4.84,10.78,4.48,16-1.18,1.22-1.32,2.41-2.68,3.57-4.06C684.52,451.3,684,446.11,676.88,440.29Zm-67.7,114.4c-16.23-.24-32.47-.19-48.7,0-3.57,0-4.57-1-4.54-4.57.16-18.76.09-37.52.07-56.28,0-13.53-6.41-21.4-19.91-21.93-20-.77-40-1.13-60,.26-10.36.73-17.42,8.83-17.49,19.22-.11,19.3-.15,38.6.06,57.9.05,4.19-1,5.5-5.35,5.43-16.05-.27-32.11-.24-48.15,0-4,0-5.21-1-5.16-5.08.22-19.84.1-39.68.1-59.52,0-19.48.08-39-.08-58.45a9,9,0,0,1,3.61-7.81Q453.92,382.78,504,341.46c2.74-2.27,4.29-1.86,6.76.18q49.89,41.12,100,82a9.51,9.51,0,0,1,3.83,8.25q-.18,58.73,0,117.43C614.6,553.61,613.42,554.76,609.18,554.69Z" transform="translate(-331.96 -311.03)"/></svg>