<svg id="Layer_1" data-name="Layer 1" xmlns="http://www.w3.org/2000/svg" viewBox="0 0 300.4 300.82"><defs><style>.cls-1{fill:#fff;}</style></defs><path class="cls-1" d="M519.75,304.78c-82.42,0-150.32,68.15-150.31,150.42,0,82.5,68.14,150.41,150.33,150.4S671,537.66,669.82,455.18C671,372.93,602.19,304.78,519.75,304.78Zm-.23,271.43c-65.14,1.72-121.23-56-121.11-121.26.12-64.88,56-121.28,121.56-121.19,64.91.08,121.26,56.28,121.15,121.66C641,520.37,584.84,578.21,519.52,576.21Z" transform="translate(-369.44 -304.78)"/><path class="cls-1" d="M516,542.65c-24.77-.85-48.79-11.62-68-32.71-8.56-9.39-5.28-22.23,6.23-25.18,6.13-1.58,10.9.95,14.86,5.34,9.13,10.1,20,17.5,33.21,20.94,23.92,6.23,45,.41,63.23-16,2.27-2,4.22-4.42,6.47-6.48,6.09-5.59,13.8-5.66,20-.31,5.17,4.51,6.16,13,1.49,19.1-10.21,13.28-23.7,22.36-39.09,28.54C543.31,540.33,531.73,542.65,516,542.65Z" transform="translate(-369.44 -304.78)"/><path class="cls-1" d="M471,445.46a19.41,19.41,0,1,1,19.63-19.31A19.5,19.5,0,0,1,471,445.46Z" transform="translate(-369.44 -304.78)"/><path class="cls-1" d="M568.12,445.46a19.41,19.41,0,1,1,19.57-19.37A19.47,19.47,0,0,1,568.12,445.46Z" transform="translate(-369.44 -304.78)"/></svg>